<?xml version="1.0" encoding="UTF-8" standalone="no"?>
<!DOCTYPE svg PUBLIC "-//W3C//DTD SVG 1.1//EN" "http://www.w3.org/Graphics/SVG/1.1/DTD/svg11.dtd">
<svg xmlns:dc="http://purl.org/dc/elements/1.1/" xmlns:xl="http://www.w3.org/1999/xlink" version="1.1" xmlns="http://www.w3.org/2000/svg" viewBox="-523 -478 146 481" width="146" height="481">
  <defs>
    <marker orient="auto" overflow="visible" markerUnits="strokeWidth" id="FilledArrow_Marker" stroke-linejoin="miter" stroke-miterlimit="10" viewBox="-1 -4 10 8" markerWidth="10" markerHeight="8" color="black">
      <g>
        <path d="M 8 0 L 0 -3 L 0 3 Z" fill="currentColor" stroke="currentColor" stroke-width="1"/>
      </g>
    </marker>
  </defs>
  <g id="OpenXR-Toolkit" stroke-dasharray="none" fill-opacity="1" stroke-opacity="1" stroke="none" fill="none">
    <title>OpenXR-Toolkit</title>
    <rect fill="white" x="-523" y="-478" width="146" height="481"/>
    <g id="OpenXR-Toolkit_Layer_1">
      <title>Layer 1</title>
      <g id="Graphic_5">
        <path d="M -487.5 -477.5 L -411.5 -477.5 C -404.8726 -477.5 -399.5 -472.1274 -399.5 -465.5 L -399.5 -439.5 C -399.5 -432.8726 -404.8726 -427.5 -411.5 -427.5 L -487.5 -427.5 C -494.1274 -427.5 -499.5 -432.8726 -499.5 -439.5 L -499.5 -465.5 C -499.5 -472.1274 -494.1274 -477.5 -487.5 -477.5 Z" fill="white"/>
        <path d="M -487.5 -477.5 L -411.5 -477.5 C -404.8726 -477.5 -399.5 -472.1274 -399.5 -465.5 L -399.5 -439.5 C -399.5 -432.8726 -404.8726 -427.5 -411.5 -427.5 L -487.5 -427.5 C -494.1274 -427.5 -499.5 -432.8726 -499.5 -439.5 L -499.5 -465.5 C -499.5 -472.1274 -494.1274 -477.5 -487.5 -477.5 Z" stroke="black" stroke-linecap="round" stroke-linejoin="round" stroke-width="1"/>
        <text transform="translate(-494.5 -461.724)" fill="black">
          <tspan font-family="Helvetica Neue" font-size="16" fill="black" x="23.512" y="15">Game</tspan>
        </text>
      </g>
      <g id="Graphic_4">
        <path d="M -510.25 -47.5 L -389.75 -47.5 C -383.1226 -47.5 -377.75 -42.127417 -377.75 -35.5 L -377.75 -9.5 C -377.75 -2.872583 -383.1226 2.5 -389.75 2.5 L -510.25 2.5 C -516.8774 2.5 -522.25 -2.872583 -522.25 -9.5 L -522.25 -35.5 C -522.25 -42.127417 -516.8774 -47.5 -510.25 -47.5 Z" fill="white"/>
        <path d="M -510.25 -47.5 L -389.75 -47.5 C -383.1226 -47.5 -377.75 -42.127417 -377.75 -35.5 L -377.75 -9.5 C -377.75 -2.872583 -383.1226 2.5 -389.75 2.5 L -510.25 2.5 C -516.8774 2.5 -522.25 -2.872583 -522.25 -9.5 L -522.25 -35.5 C -522.25 -42.127417 -516.8774 -47.5 -510.25 -47.5 Z" stroke="black" stroke-linecap="round" stroke-linejoin="round" stroke-width="1"/>
        <text transform="translate(-517.25 -40.948)" fill="black">
          <tspan font-family="Helvetica Neue" font-size="16" fill="black" x="11.242" y="15">WMR Headsets</tspan>
          <tspan font-family="Helvetica Neue" font-size="16" fill="black" x="2.506" y="33.448">e.g HP Reverb G2</tspan>
        </text>
      </g>
      <g id="Graphic_2">
        <path d="M -488 -133.5 L -412 -133.5 C -405.3726 -133.5 -400 -128.12742 -400 -121.5 L -400 -95.5 C -400 -88.87258 -405.3726 -83.5 -412 -83.5 L -488 -83.5 C -494.6274 -83.5 -500 -88.87258 -500 -95.5 L -500 -121.5 C -500 -128.12742 -494.6274 -133.5 -488 -133.5 Z" fill="white"/>
        <path d="M -488 -133.5 L -412 -133.5 C -405.3726 -133.5 -400 -128.12742 -400 -121.5 L -400 -95.5 C -400 -88.87258 -405.3726 -83.5 -412 -83.5 L -488 -83.5 C -494.6274 -83.5 -500 -88.87258 -500 -95.5 L -500 -121.5 C -500 -128.12742 -494.6274 -133.5 -488 -133.5 Z" stroke="black" stroke-linecap="round" stroke-linejoin="round" stroke-width="1"/>
        <text transform="translate(-495 -117.724)" fill="black">
          <tspan font-family="Helvetica Neue" font-size="16" fill="black" x="25.144" y="15">WMR</tspan>
        </text>
      </g>
      <g id="Line_7">
        <line x1="-450" y1="-83.5" x2="-450" y2="-57.4" marker-end="url(#FilledArrow_Marker)" stroke="black" stroke-linecap="round" stroke-linejoin="round" stroke-width="1"/>
      </g>
      <g id="Graphic_29">
        <path d="M -510.25 -219.5 L -389.75 -219.5 C -383.1226 -219.5 -377.75 -214.12742 -377.75 -207.5 L -377.75 -181.5 C -377.75 -174.87258 -383.1226 -169.5 -389.75 -169.5 L -510.25 -169.5 C -516.8774 -169.5 -522.25 -174.87258 -522.25 -181.5 L -522.25 -207.5 C -522.25 -214.12742 -516.8774 -219.5 -510.25 -219.5 Z" fill="white"/>
        <path d="M -510.25 -219.5 L -389.75 -219.5 C -383.1226 -219.5 -377.75 -214.12742 -377.75 -207.5 L -377.75 -181.5 C -377.75 -174.87258 -383.1226 -169.5 -389.75 -169.5 L -510.25 -169.5 C -516.8774 -169.5 -522.25 -174.87258 -522.25 -181.5 L -522.25 -207.5 C -522.25 -214.12742 -516.8774 -219.5 -510.25 -219.5 Z" stroke="black" stroke-linecap="round" stroke-linejoin="round" stroke-width="1"/>
        <text transform="translate(-517.25 -212.948)" fill="black">
          <tspan font-family="Helvetica Neue" font-size="16" fill="black" x="34.218" y="15">Windows </tspan>
          <tspan font-family="Helvetica Neue" font-size="16" fill="black" x="9.034" y="33.448">Holographic API</tspan>
        </text>
      </g>
      <g id="Line_31">
        <line x1="-450" y1="-169.5" x2="-450" y2="-143.4" marker-end="url(#FilledArrow_Marker)" stroke="black" stroke-linecap="round" stroke-linejoin="round" stroke-width="1"/>
      </g>
      <g id="Graphic_35">
        <path d="M -507.5 -391.5 L -392 -391.5 C -385.3726 -391.5 -380 -386.1274 -380 -379.5 L -380 -353.5 C -380 -346.8726 -385.3726 -341.5 -392 -341.5 L -507.5 -341.5 C -514.1274 -341.5 -519.5 -346.8726 -519.5 -353.5 L -519.5 -379.5 C -519.5 -386.1274 -514.1274 -391.5 -507.5 -391.5 Z" fill="white"/>
        <path d="M -507.5 -391.5 L -392 -391.5 C -385.3726 -391.5 -380 -386.1274 -380 -379.5 L -380 -353.5 C -380 -346.8726 -385.3726 -341.5 -392 -341.5 L -507.5 -341.5 C -514.1274 -341.5 -519.5 -346.8726 -519.5 -353.5 L -519.5 -379.5 C -519.5 -386.1274 -514.1274 -391.5 -507.5 -391.5 Z" stroke="black" stroke-linecap="round" stroke-linejoin="round" stroke-width="1"/>
        <text transform="translate(-514.5 -375.724)" fill="black">
          <tspan font-family="Helvetica Neue" font-size="16" fill="black" x="34.814" y="15">OpenXR</tspan>
        </text>
      </g>
      <g id="Line_39">
        <line x1="-449.5727" y1="-427.5" x2="-449.64855" y2="-401.39996" marker-end="url(#FilledArrow_Marker)" stroke="black" stroke-linecap="round" stroke-linejoin="round" stroke-width="1"/>
      </g>
      <g id="Graphic_40">
        <path d="M -508 -305.5 L -392.5 -305.5 C -385.8726 -305.5 -380.5 -300.1274 -380.5 -293.5 L -380.5 -267.5 C -380.5 -260.87258 -385.8726 -255.5 -392.5 -255.5 L -508 -255.5 C -514.6274 -255.5 -520 -260.87258 -520 -267.5 L -520 -293.5 C -520 -300.1274 -514.6274 -305.5 -508 -305.5 Z" fill="white"/>
        <path d="M -508 -305.5 L -392.5 -305.5 C -385.8726 -305.5 -380.5 -300.1274 -380.5 -293.5 L -380.5 -267.5 C -380.5 -260.87258 -385.8726 -255.5 -392.5 -255.5 L -508 -255.5 C -514.6274 -255.5 -520 -260.87258 -520 -267.5 L -520 -293.5 C -520 -300.1274 -514.6274 -305.5 -508 -305.5 Z" stroke="black" stroke-linecap="round" stroke-linejoin="round" stroke-width="1"/>
        <text transform="translate(-515 -289.724)" fill="black">
          <tspan font-family="Helvetica Neue" font-size="16" fill="black" x="11.254" y="15">OpenXR Tookit</tspan>
        </text>
      </g>
      <g id="Line_42">
        <line x1="-449.89535" y1="-341.5" x2="-450.0471" y2="-315.39983" marker-end="url(#FilledArrow_Marker)" stroke="black" stroke-linecap="round" stroke-linejoin="round" stroke-width="1"/>
      </g>
      <g id="Line_43">
        <line x1="-450.1773" y1="-255.5" x2="-450.10145" y2="-229.39996" marker-end="url(#FilledArrow_Marker)" stroke="black" stroke-linecap="round" stroke-linejoin="round" stroke-width="1"/>
      </g>
    </g>
  </g>
</svg>
