<?xml version="1.0" encoding="UTF-8" standalone="no"?>
<!DOCTYPE svg PUBLIC "-//W3C//DTD SVG 1.1//EN" "http://www.w3.org/Graphics/SVG/1.1/DTD/svg11.dtd">
<svg xmlns:dc="http://purl.org/dc/elements/1.1/" xmlns:xl="http://www.w3.org/1999/xlink" version="1.1" xmlns="http://www.w3.org/2000/svg" viewBox="-318 -684 433 631" width="433" height="631">
  <defs>
    <marker orient="auto" overflow="visible" markerUnits="strokeWidth" id="FilledArrow_Marker" stroke-linejoin="miter" stroke-miterlimit="10" viewBox="-1 -4 10 8" markerWidth="10" markerHeight="8" color="black">
      <g>
        <path d="M 8 0 L 0 -3 L 0 3 Z" fill="currentColor" stroke="currentColor" stroke-width="1"/>
      </g>
    </marker>
  </defs>
  <g id="openxr-multiple-layers" stroke-dasharray="none" fill-opacity="1" stroke-opacity="1" stroke="none" fill="none">
    <title>openxr-multiple-layers</title>
    <rect fill="white" x="-318" y="-684" width="433" height="631"/>
    <g id="openxr-multiple-layers_Layer_1">
      <title>Layer 1</title>
      <g id="Graphic_35">
        <path d="M -304 -682 L 101 -682 C 107.62742 -682 113 -676.6274 113 -670 L 113 -161 C 113 -154.37258 107.62742 -149 101 -149 L -304 -149 C -310.6274 -149 -316 -154.37258 -316 -161 L -316 -670 C -316 -676.6274 -310.6274 -682 -304 -682 Z" fill="white"/>
        <path d="M -304 -682 L 101 -682 C 107.62742 -682 113 -676.6274 113 -670 L 113 -161 C 113 -154.37258 107.62742 -149 101 -149 L -304 -149 C -310.6274 -149 -316 -154.37258 -316 -161 L -316 -670 C -316 -676.6274 -310.6274 -682 -304 -682 Z" stroke="#0096ff" stroke-linecap="round" stroke-linejoin="round" stroke-width="3"/>
        <text transform="translate(-311 -677)" fill="#0096ff">
          <tspan font-family="Helvetica Neue" font-size="16" fill="#0096ff" x="156.9" y="15">Game Process</tspan>
        </text>
      </g>
      <g id="Graphic_2">
        <path d="M -291.75 -648.5 L -157.75 -648.5 C -151.12258 -648.5 -145.75 -643.1274 -145.75 -636.5 L -145.75 -610.5 C -145.75 -603.8726 -151.12258 -598.5 -157.75 -598.5 L -291.75 -598.5 C -298.3774 -598.5 -303.75 -603.8726 -303.75 -610.5 L -303.75 -636.5 C -303.75 -643.1274 -298.3774 -648.5 -291.75 -648.5 Z" fill="white"/>
        <path d="M -291.75 -648.5 L -157.75 -648.5 C -151.12258 -648.5 -145.75 -643.1274 -145.75 -636.5 L -145.75 -610.5 C -145.75 -603.8726 -151.12258 -598.5 -157.75 -598.5 L -291.75 -598.5 C -298.3774 -598.5 -303.75 -603.8726 -303.75 -610.5 L -303.75 -636.5 C -303.75 -643.1274 -298.3774 -648.5 -291.75 -648.5 Z" stroke="black" stroke-linecap="round" stroke-linejoin="round" stroke-width="1"/>
        <text transform="translate(-298.75 -638.224)" fill="black">
          <tspan font-family="Helvetica Neue" font-size="16" fill="black" x="52.512" y="15">Game</tspan>
          <tspan font-family="Courier New" font-size="10" fill="black" x="43.995117" y="26.447998">MyGame.exe</tspan>
        </text>
      </g>
      <g id="Graphic_13">
        <path d="M -262.75 -104 L -186.75 -104 C -180.12258 -104 -174.75 -98.62742 -174.75 -92 L -174.75 -66 C -174.75 -59.37258 -180.12258 -54 -186.75 -54 L -262.75 -54 C -269.37742 -54 -274.75 -59.37258 -274.75 -66 L -274.75 -92 C -274.75 -98.62742 -269.37742 -104 -262.75 -104 Z" fill="white"/>
        <path d="M -262.75 -104 L -186.75 -104 C -180.12258 -104 -174.75 -98.62742 -174.75 -92 L -174.75 -66 C -174.75 -59.37258 -180.12258 -54 -186.75 -54 L -262.75 -54 C -269.37742 -54 -274.75 -59.37258 -274.75 -66 L -274.75 -92 C -274.75 -98.62742 -269.37742 -104 -262.75 -104 Z" stroke="black" stroke-linecap="round" stroke-linejoin="round" stroke-width="1"/>
        <text transform="translate(-269.75 -97.448)" fill="black">
          <tspan font-family="Helvetica Neue" font-size="16" fill="black" x="15.064" y="15">OpenXR </tspan>
          <tspan font-family="Helvetica Neue" font-size="16" fill="black" x="15.208" y="33.448">Runtime</tspan>
        </text>
      </g>
      <g id="Graphic_15">
        <path d="M -289.25 -466 L -157.75 -466 C -151.12258 -466 -145.75 -460.6274 -145.75 -454 L -145.75 -428 C -145.75 -421.3726 -151.12258 -416 -157.75 -416 L -289.25 -416 C -295.8774 -416 -301.25 -421.3726 -301.25 -428 L -301.25 -454 C -301.25 -460.6274 -295.8774 -466 -289.25 -466 Z" fill="white"/>
        <path d="M -289.25 -466 L -157.75 -466 C -151.12258 -466 -145.75 -460.6274 -145.75 -454 L -145.75 -428 C -145.75 -421.3726 -151.12258 -416 -157.75 -416 L -289.25 -416 C -295.8774 -416 -301.25 -421.3726 -301.25 -428 L -301.25 -454 C -301.25 -460.6274 -295.8774 -466 -289.25 -466 Z" stroke="black" stroke-linecap="round" stroke-linejoin="round" stroke-width="1"/>
        <text transform="translate(-296.25 -455.724)" fill="black">
          <tspan font-family="Helvetica Neue" font-size="16" fill="black" x="1.318" y="15">OpenXR Trampoline</tspan>
          <tspan font-family="Courier New" font-size="10" fill="black" x="21.7417" y="26.447998">openxr_loader.dll</tspan>
        </text>
      </g>
      <g id="Line_27">
        <line x1="-224.57877" y1="-598.5" x2="-223.73904" y2="-475.89977" marker-end="url(#FilledArrow_Marker)" stroke="black" stroke-linecap="round" stroke-linejoin="round" stroke-dasharray="4.0,4.0" stroke-width="1"/>
      </g>
      <g id="Graphic_28">
        <rect x="-296.3489" y="-566.1437" width="144.42188" height="64" fill="white"/>
        <path d="M -296.3489 -566.1437 L -151.92703 -566.1437 L -151.92703 -502.1437 L -296.3489 -502.1437 Z" stroke="black" stroke-linecap="round" stroke-linejoin="round" stroke-dasharray="4.0,4.0" stroke-width="1"/>
        <text transform="translate(-291.3489 -561.1437)" fill="black">
          <tspan font-family="Courier New" font-size="16" fill="black" x="0" y="13">xrBeginFrame()</tspan>
          <tspan font-family="Courier New" font-size="16" fill="black" x="0" y="31">xrEndFrame()</tspan>
          <tspan font-family="Courier New" font-size="16" fill="black" x="0" y="49">…</tspan>
        </text>
      </g>
      <g id="Line_34">
        <line x1="-223.58633" y1="-416" x2="-224.6295" y2="-113.89994" marker-end="url(#FilledArrow_Marker)" stroke="black" stroke-linecap="round" stroke-linejoin="round" stroke-dasharray="4.0,4.0" stroke-width="1"/>
      </g>
      <g id="Graphic_33">
        <rect x="-296.70454" y="-176.25253" width="144.42188" height="46" fill="white"/>
        <path d="M -296.70454 -176.25253 L -152.28267 -176.25253 L -152.28267 -130.25253 L -296.70454 -130.25253 Z" stroke="black" stroke-linecap="round" stroke-linejoin="round" stroke-dasharray="4.0,4.0" stroke-width="1"/>
        <text transform="translate(-291.70454 -171.25253)" fill="black">
          <tspan font-family="Courier New" font-size="16" fill="black" x="0" y="13">xrBeginFrame()</tspan>
          <tspan font-family="Courier New" font-size="16" fill="black" x="0" y="31">…</tspan>
        </text>
      </g>
      <g id="Graphic_36">
        <path d="M -45 -365.6183 L 86.5 -365.6183 C 93.12742 -365.6183 98.5 -360.2457 98.5 -353.6183 L 98.5 -327.61828 C 98.5 -320.99086 93.12742 -315.61828 86.5 -315.61828 L -45 -315.61828 C -51.62742 -315.61828 -57 -320.99086 -57 -327.61828 L -57 -353.6183 C -57 -360.2457 -51.62742 -365.6183 -45 -365.6183 Z" fill="white"/>
        <path d="M -45 -365.6183 L 86.5 -365.6183 C 93.12742 -365.6183 98.5 -360.2457 98.5 -353.6183 L 98.5 -327.61828 C 98.5 -320.99086 93.12742 -315.61828 86.5 -315.61828 L -45 -315.61828 C -51.62742 -315.61828 -57 -320.99086 -57 -327.61828 L -57 -353.6183 C -57 -360.2457 -51.62742 -365.6183 -45 -365.6183 Z" stroke="black" stroke-linecap="round" stroke-linejoin="round" stroke-width="1"/>
        <text transform="translate(-52 -355.34228)" fill="black">
          <tspan font-family="Helvetica Neue" font-size="16" fill="black" x="28.886" y="15">Overlay DLL</tspan>
          <tspan font-family="Courier New" font-size="10" fill="black" x=".73828125" y="26.447998">MyOverlayOpenXRLayer.dll</tspan>
        </text>
      </g>
      <g id="Line_39">
        <line x1="-162.6697" y1="-416" x2="-49.23714" y2="-369.38155" marker-end="url(#FilledArrow_Marker)" stroke="black" stroke-linecap="round" stroke-linejoin="round" stroke-dasharray="4.0,4.0" stroke-width="1"/>
      </g>
      <g id="Graphic_38">
        <rect x="-165.27258" y="-405.33857" width="125.21875" height="28" fill="white"/>
        <path d="M -165.27258 -405.33857 L -40.05383 -405.33857 L -40.05383 -377.33857 L -165.27258 -377.33857 Z" stroke="black" stroke-linecap="round" stroke-linejoin="round" stroke-dasharray="4.0,4.0" stroke-width="1"/>
        <text transform="translate(-160.27258 -400.33857)" fill="black">
          <tspan font-family="Courier New" font-size="16" fill="black" x="0" y="13">xrEndFrame()</tspan>
        </text>
      </g>
      <g id="Line_41">
        <line x1="20.75" y1="-315.61828" x2="20.75" y2="-244.9" marker-end="url(#FilledArrow_Marker)" stroke="black" stroke-linecap="round" stroke-linejoin="round" stroke-dasharray="4.0,4.0" stroke-width="1"/>
      </g>
      <g id="Graphic_40">
        <rect x="-41.859375" y="-290.1563" width="125.21875" height="28" fill="white"/>
        <path d="M -41.859375 -290.1563 L 83.359375 -290.1563 L 83.359375 -262.1563 L -41.859375 -262.1563 Z" stroke="black" stroke-linecap="round" stroke-linejoin="round" stroke-dasharray="4.0,4.0" stroke-width="1"/>
        <text transform="translate(-36.859375 -285.1563)" fill="black">
          <tspan font-family="Courier New" font-size="16" fill="black" x="0" y="13">xrEndFrame()</tspan>
        </text>
      </g>
      <g id="Graphic_42">
        <path d="M -53.875 -235 L 95.375 -235 C 102.00242 -235 107.375 -229.62742 107.375 -223 L 107.375 -197 C 107.375 -190.37258 102.00242 -185 95.375 -185 L -53.875 -185 C -60.50242 -185 -65.875 -190.37258 -65.875 -197 L -65.875 -223 C -65.875 -229.62742 -60.50242 -235 -53.875 -235 Z" fill="white"/>
        <path d="M -53.875 -235 L 95.375 -235 C 102.00242 -235 107.375 -229.62742 107.375 -223 L 107.375 -197 C 107.375 -190.37258 102.00242 -185 95.375 -185 L -53.875 -185 C -60.50242 -185 -65.875 -190.37258 -65.875 -197 L -65.875 -223 C -65.875 -229.62742 -60.50242 -235 -53.875 -235 Z" stroke="black" stroke-linecap="round" stroke-linejoin="round" stroke-width="1"/>
        <text transform="translate(-60.875 -224.724)" fill="black">
          <tspan font-family="Helvetica Neue" font-size="16" fill="black" x="1.905" y="15">Some Other API Layer</tspan>
          <tspan font-family="Courier New" font-size="10" fill="black" x="15.614258" y="26.447998">MyOtherOpenXRLayer.dll</tspan>
        </text>
      </g>
      <g id="Line_44">
        <line x1="-26.101145" y1="-185" x2="-172.09156" y2="-107.0988" marker-end="url(#FilledArrow_Marker)" stroke="black" stroke-linecap="round" stroke-linejoin="round" stroke-dasharray="4.0,4.0" stroke-width="1"/>
      </g>
      <g id="Graphic_43">
        <rect x="-147.00659" y="-167.89293" width="125.21875" height="28" fill="white"/>
        <path d="M -147.00659 -167.89293 L -21.787838 -167.89293 L -21.787838 -139.89293 L -147.00659 -139.89293 Z" stroke="black" stroke-linecap="round" stroke-linejoin="round" stroke-dasharray="4.0,4.0" stroke-width="1"/>
        <text transform="translate(-142.00659 -162.89293)" fill="black">
          <tspan font-family="Courier New" font-size="16" fill="black" x="0" y="13">xrEndFrame()</tspan>
        </text>
      </g>
    </g>
  </g>
</svg>
