<?xml version="1.0" encoding="UTF-8" standalone="no"?>
<!DOCTYPE svg PUBLIC "-//W3C//DTD SVG 1.1//EN" "http://www.w3.org/Graphics/SVG/1.1/DTD/svg11.dtd">
<svg xmlns:dc="http://purl.org/dc/elements/1.1/" xmlns:xl="http://www.w3.org/1999/xlink" version="1.1" xmlns="http://www.w3.org/2000/svg" viewBox="-318 -684 843 509" width="843" height="509">
  <defs>
    <marker orient="auto" overflow="visible" markerUnits="strokeWidth" id="FilledArrow_Marker" stroke-linejoin="miter" stroke-miterlimit="10" viewBox="-1 -4 10 8" markerWidth="10" markerHeight="8" color="black">
      <g>
        <path d="M 8 0 L 0 -3 L 0 3 Z" fill="currentColor" stroke="currentColor" stroke-width="1"/>
      </g>
    </marker>
    <marker orient="auto" overflow="visible" markerUnits="strokeWidth" id="FilledArrow_Marker_2" stroke-linejoin="miter" stroke-miterlimit="10" viewBox="-9 -4 10 8" markerWidth="10" markerHeight="8" color="black">
      <g>
        <path d="M -8 0 L 0 3 L 0 -3 Z" fill="currentColor" stroke="currentColor" stroke-width="1"/>
      </g>
    </marker>
  </defs>
  <g id="openxr-openkneeboard" stroke-dasharray="none" fill-opacity="1" stroke-opacity="1" stroke="none" fill="none">
    <title>openxr-openkneeboard</title>
    <rect fill="white" x="-318" y="-684" width="843" height="509"/>
    <g id="openxr-openkneeboard_Layer_1">
      <title>Layer 1</title>
      <g id="Graphic_35">
        <path d="M -304 -682 L 106.5 -682 C 113.12742 -682 118.5 -676.6274 118.5 -670 L 118.5 -299.61345 C 118.5 -292.98604 113.12742 -287.61345 106.5 -287.61345 L -304 -287.61345 C -310.6274 -287.61345 -316 -292.98604 -316 -299.61345 L -316 -670 C -316 -676.6274 -310.6274 -682 -304 -682 Z" fill="white"/>
        <path d="M -304 -682 L 106.5 -682 C 113.12742 -682 118.5 -676.6274 118.5 -670 L 118.5 -299.61345 C 118.5 -292.98604 113.12742 -287.61345 106.5 -287.61345 L -304 -287.61345 C -310.6274 -287.61345 -316 -292.98604 -316 -299.61345 L -316 -670 C -316 -676.6274 -310.6274 -682 -304 -682 Z" stroke="#0096ff" stroke-linecap="round" stroke-linejoin="round" stroke-width="3"/>
        <text transform="translate(-311 -677)" fill="#0096ff">
          <tspan font-family="Helvetica Neue" font-size="16" fill="#0096ff" x="159.65" y="15">Game Process</tspan>
        </text>
      </g>
      <g id="Graphic_2">
        <path d="M -291.75 -648.5 L -157.75 -648.5 C -151.12258 -648.5 -145.75 -643.1274 -145.75 -636.5 L -145.75 -610.5 C -145.75 -603.8726 -151.12258 -598.5 -157.75 -598.5 L -291.75 -598.5 C -298.3774 -598.5 -303.75 -603.8726 -303.75 -610.5 L -303.75 -636.5 C -303.75 -643.1274 -298.3774 -648.5 -291.75 -648.5 Z" fill="white"/>
        <path d="M -291.75 -648.5 L -157.75 -648.5 C -151.12258 -648.5 -145.75 -643.1274 -145.75 -636.5 L -145.75 -610.5 C -145.75 -603.8726 -151.12258 -598.5 -157.75 -598.5 L -291.75 -598.5 C -298.3774 -598.5 -303.75 -603.8726 -303.75 -610.5 L -303.75 -636.5 C -303.75 -643.1274 -298.3774 -648.5 -291.75 -648.5 Z" stroke="black" stroke-linecap="round" stroke-linejoin="round" stroke-width="1"/>
        <text transform="translate(-298.75 -638.224)" fill="black">
          <tspan font-family="Helvetica Neue" font-size="16" fill="black" x="52.512" y="15">Game</tspan>
          <tspan font-family="Courier New" font-size="10" fill="black" x="43.995117" y="26.447998">MyGame.exe</tspan>
        </text>
      </g>
      <g id="Graphic_13">
        <path d="M -261.5 -225.5 L -185.5 -225.5 C -178.87258 -225.5 -173.5 -220.12742 -173.5 -213.5 L -173.5 -187.5 C -173.5 -180.87258 -178.87258 -175.5 -185.5 -175.5 L -261.5 -175.5 C -268.12742 -175.5 -273.5 -180.87258 -273.5 -187.5 L -273.5 -213.5 C -273.5 -220.12742 -268.12742 -225.5 -261.5 -225.5 Z" fill="white"/>
        <path d="M -261.5 -225.5 L -185.5 -225.5 C -178.87258 -225.5 -173.5 -220.12742 -173.5 -213.5 L -173.5 -187.5 C -173.5 -180.87258 -178.87258 -175.5 -185.5 -175.5 L -261.5 -175.5 C -268.12742 -175.5 -273.5 -180.87258 -273.5 -187.5 L -273.5 -213.5 C -273.5 -220.12742 -268.12742 -225.5 -261.5 -225.5 Z" stroke="black" stroke-linecap="round" stroke-linejoin="round" stroke-width="1"/>
        <text transform="translate(-268.5 -218.948)" fill="black">
          <tspan font-family="Helvetica Neue" font-size="16" fill="black" x="15.064" y="15">OpenXR </tspan>
          <tspan font-family="Helvetica Neue" font-size="16" fill="black" x="15.208" y="33.448">Runtime</tspan>
        </text>
      </g>
      <g id="Graphic_15">
        <path d="M -289.25 -466 L -157.75 -466 C -151.12258 -466 -145.75 -460.6274 -145.75 -454 L -145.75 -428 C -145.75 -421.3726 -151.12258 -416 -157.75 -416 L -289.25 -416 C -295.8774 -416 -301.25 -421.3726 -301.25 -428 L -301.25 -454 C -301.25 -460.6274 -295.8774 -466 -289.25 -466 Z" fill="white"/>
        <path d="M -289.25 -466 L -157.75 -466 C -151.12258 -466 -145.75 -460.6274 -145.75 -454 L -145.75 -428 C -145.75 -421.3726 -151.12258 -416 -157.75 -416 L -289.25 -416 C -295.8774 -416 -301.25 -421.3726 -301.25 -428 L -301.25 -454 C -301.25 -460.6274 -295.8774 -466 -289.25 -466 Z" stroke="black" stroke-linecap="round" stroke-linejoin="round" stroke-width="1"/>
        <text transform="translate(-296.25 -455.724)" fill="black">
          <tspan font-family="Helvetica Neue" font-size="16" fill="black" x="1.318" y="15">OpenXR Trampoline</tspan>
          <tspan font-family="Courier New" font-size="10" fill="black" x="21.7417" y="26.447998">openxr_loader.dll</tspan>
        </text>
      </g>
      <g id="Line_27">
        <line x1="-224.57877" y1="-598.5" x2="-223.73904" y2="-475.89977" marker-end="url(#FilledArrow_Marker)" stroke="black" stroke-linecap="round" stroke-linejoin="round" stroke-dasharray="4.0,4.0" stroke-width="1"/>
      </g>
      <g id="Graphic_28">
        <rect x="-296.3489" y="-566.1437" width="144.42188" height="64" fill="white"/>
        <path d="M -296.3489 -566.1437 L -151.92703 -566.1437 L -151.92703 -502.1437 L -296.3489 -502.1437 Z" stroke="black" stroke-linecap="round" stroke-linejoin="round" stroke-dasharray="4.0,4.0" stroke-width="1"/>
        <text transform="translate(-291.3489 -561.1437)" fill="black">
          <tspan font-family="Courier New" font-size="16" fill="black" x="0" y="13">xrBeginFrame()</tspan>
          <tspan font-family="Courier New" font-size="16" fill="black" x="0" y="31">xrEndFrame()</tspan>
          <tspan font-family="Courier New" font-size="16" fill="black" x="0" y="49">…</tspan>
        </text>
      </g>
      <g id="Line_34">
        <line x1="-223.5" y1="-416" x2="-223.5" y2="-235.4" marker-end="url(#FilledArrow_Marker)" stroke="black" stroke-linecap="round" stroke-linejoin="round" stroke-dasharray="4.0,4.0" stroke-width="1"/>
      </g>
      <g id="Graphic_33">
        <rect x="-295.71094" y="-310.9819" width="144.42188" height="46" fill="white"/>
        <path d="M -295.71094 -310.9819 L -151.28906 -310.9819 L -151.28906 -264.9819 L -295.71094 -264.9819 Z" stroke="black" stroke-linecap="round" stroke-linejoin="round" stroke-dasharray="4.0,4.0" stroke-width="1"/>
        <text transform="translate(-290.71094 -305.9819)" fill="black">
          <tspan font-family="Courier New" font-size="16" fill="black" x="0" y="13">xrBeginFrame()</tspan>
          <tspan font-family="Courier New" font-size="16" fill="black" x="0" y="31">…</tspan>
        </text>
      </g>
      <g id="Graphic_36">
        <path d="M -43.5 -368.5 L 88 -368.5 C 94.62742 -368.5 100 -363.1274 100 -356.5 L 100 -330.5 C 100 -323.8726 94.62742 -318.5 88 -318.5 L -43.5 -318.5 C -50.127417 -318.5 -55.5 -323.8726 -55.5 -330.5 L -55.5 -356.5 C -55.5 -363.1274 -50.127417 -368.5 -43.5 -368.5 Z" fill="white"/>
        <path d="M -43.5 -368.5 L 88 -368.5 C 94.62742 -368.5 100 -363.1274 100 -356.5 L 100 -330.5 C 100 -323.8726 94.62742 -318.5 88 -318.5 L -43.5 -318.5 C -50.127417 -318.5 -55.5 -323.8726 -55.5 -330.5 L -55.5 -356.5 C -55.5 -363.1274 -50.127417 -368.5 -43.5 -368.5 Z" stroke="black" stroke-linecap="round" stroke-linejoin="round" stroke-width="1"/>
        <text transform="translate(-50.5 -367.448)" fill="black">
          <tspan font-family="Helvetica Neue" font-size="16" fill="black" x="13.91" y="15">OpenKneeboard </tspan>
          <tspan font-family="Helvetica Neue" font-size="16" fill="black" x="20.886" y="33.448">OpenXR Layer</tspan>
          <tspan font-family="Courier New" font-size="10" fill="black" x=".73828125" y="44.895996">OpenKneeboard-OpenXR.dll</tspan>
        </text>
      </g>
      <g id="Line_39">
        <line x1="-160.48718" y1="-416" x2="-49.965033" y2="-372.15093" marker-end="url(#FilledArrow_Marker)" stroke="black" stroke-linecap="round" stroke-linejoin="round" stroke-dasharray="4.0,4.0" stroke-width="1"/>
      </g>
      <g id="Graphic_38">
        <rect x="-164.49248" y="-406.74915" width="125.21875" height="28" fill="white"/>
        <path d="M -164.49248 -406.74915 L -39.273728 -406.74915 L -39.273728 -378.74915 L -164.49248 -378.74915 Z" stroke="black" stroke-linecap="round" stroke-linejoin="round" stroke-dasharray="4.0,4.0" stroke-width="1"/>
        <text transform="translate(-159.49248 -401.74915)" fill="black">
          <tspan font-family="Courier New" font-size="16" fill="black" x="0" y="13">xrEndFrame()</tspan>
        </text>
      </g>
      <g id="Line_41">
        <line x1="-20.713287" y1="-318.5" x2="-173.0749" y2="-229.84197" marker-end="url(#FilledArrow_Marker)" stroke="black" stroke-linecap="round" stroke-linejoin="round" stroke-dasharray="4.0,4.0" stroke-width="1"/>
      </g>
      <g id="Graphic_40">
        <rect x="-132.67177" y="-303.78414" width="125.21875" height="28" fill="white"/>
        <path d="M -132.67177 -303.78414 L -7.453021 -303.78414 L -7.453021 -275.78414 L -132.67177 -275.78414 Z" stroke="black" stroke-linecap="round" stroke-linejoin="round" stroke-dasharray="4.0,4.0" stroke-width="1"/>
        <text transform="translate(-127.67177 -298.78414)" fill="black">
          <tspan font-family="Courier New" font-size="16" fill="black" x="0" y="13">xrEndFrame()</tspan>
        </text>
      </g>
      <g id="Graphic_42">
        <path d="M 305.5 -406.74915 L 511 -406.74915 C 517.6274 -406.74915 523 -401.37656 523 -394.74915 L 523 -310 C 523 -303.3726 517.6274 -298 511 -298 L 305.5 -298 C 298.8726 -298 293.5 -303.3726 293.5 -310 L 293.5 -394.74915 C 293.5 -401.37656 298.8726 -406.74915 305.5 -406.74915 Z" fill="white"/>
        <path d="M 305.5 -406.74915 L 511 -406.74915 C 517.6274 -406.74915 523 -401.37656 523 -394.74915 L 523 -310 C 523 -303.3726 517.6274 -298 511 -298 L 305.5 -298 C 298.8726 -298 293.5 -303.3726 293.5 -310 L 293.5 -394.74915 C 293.5 -401.37656 298.8726 -406.74915 305.5 -406.74915 Z" stroke="#0096ff" stroke-linecap="round" stroke-linejoin="round" stroke-width="3"/>
        <text transform="translate(298.5 -401.74915)" fill="#0096ff">
          <tspan font-family="Helvetica Neue" font-size="16" fill="#0096ff" x="19.798" y="15">OpenKneeboard Process</tspan>
        </text>
      </g>
      <g id="Graphic_43">
        <path d="M 325.75 -368.5 L 490.75 -368.5 C 497.3774 -368.5 502.75 -363.1274 502.75 -356.5 L 502.75 -330.5 C 502.75 -323.8726 497.3774 -318.5 490.75 -318.5 L 325.75 -318.5 C 319.1226 -318.5 313.75 -323.8726 313.75 -330.5 L 313.75 -356.5 C 313.75 -363.1274 319.1226 -368.5 325.75 -368.5 Z" fill="white"/>
        <path d="M 325.75 -368.5 L 490.75 -368.5 C 497.3774 -368.5 502.75 -363.1274 502.75 -356.5 L 502.75 -330.5 C 502.75 -323.8726 497.3774 -318.5 490.75 -318.5 L 325.75 -318.5 C 319.1226 -318.5 313.75 -323.8726 313.75 -330.5 L 313.75 -356.5 C 313.75 -363.1274 319.1226 -368.5 325.75 -368.5 Z" stroke="black" stroke-linecap="round" stroke-linejoin="round" stroke-width="1"/>
        <text transform="translate(318.75 -358.224)" fill="black">
          <tspan font-family="Helvetica Neue" font-size="16" fill="black" x="13.764" y="15">OpenKneeboard App</tspan>
          <tspan font-family="Courier New" font-size="10" fill="black" x="29.490234" y="26.447998">OpenKneeboardApp.exe</tspan>
        </text>
      </g>
      <g id="Line_44">
        <line x1="109.9" y1="-343.5" x2="313.75" y2="-343.5" marker-start="url(#FilledArrow_Marker_2)" stroke="black" stroke-linecap="round" stroke-linejoin="round" stroke-dasharray="4.0,4.0" stroke-width="1"/>
      </g>
      <g id="Graphic_45">
        <path d="M 148.3578 -366.948 L 263.8138 -366.948 C 265.47065 -366.948 266.8138 -365.60485 266.8138 -363.948 L 266.8138 -323.052 C 266.8138 -321.39515 265.47065 -320.052 263.8138 -320.052 L 148.3578 -320.052 C 146.70094 -320.052 145.3578 -321.39515 145.3578 -323.052 L 145.3578 -363.948 C 145.3578 -365.60485 146.70094 -366.948 148.3578 -366.948 Z" fill="white"/>
        <path d="M 148.3578 -366.948 L 263.8138 -366.948 C 265.47065 -366.948 266.8138 -365.60485 266.8138 -363.948 L 266.8138 -323.052 C 266.8138 -321.39515 265.47065 -320.052 263.8138 -320.052 L 148.3578 -320.052 C 146.70094 -320.052 145.3578 -321.39515 145.3578 -323.052 L 145.3578 -363.948 C 145.3578 -365.60485 146.70094 -366.948 148.3578 -366.948 Z" stroke="black" stroke-linecap="round" stroke-linejoin="round" stroke-dasharray="4.0,4.0" stroke-width="1"/>
        <text transform="translate(150.3578 -361.948)" fill="black">
          <tspan font-family="Helvetica Neue" font-size="16" fill="black" x="0" y="15">shared memory</tspan>
          <tspan font-family="Helvetica Neue" font-size="16" fill="black" x="11.272" y="33.448">and textures</tspan>
        </text>
      </g>
    </g>
  </g>
</svg>
