<?xml version="1.0" encoding="UTF-8" standalone="no"?>
<!DOCTYPE svg PUBLIC "-//W3C//DTD SVG 1.1//EN" "http://www.w3.org/Graphics/SVG/1.1/DTD/svg11.dtd">
<svg xmlns:dc="http://purl.org/dc/elements/1.1/" xmlns:xl="http://www.w3.org/1999/xlink" version="1.1" xmlns="http://www.w3.org/2000/svg" viewBox="-502 -298 558 568" width="558" height="568">
  <defs>
    <marker orient="auto" overflow="visible" markerUnits="strokeWidth" id="FilledArrow_Marker" stroke-linejoin="miter" stroke-miterlimit="10" viewBox="-1 -4 10 8" markerWidth="10" markerHeight="8" color="black">
      <g>
        <path d="M 8 0 L 0 -3 L 0 3 Z" fill="currentColor" stroke="currentColor" stroke-width="1"/>
      </g>
    </marker>
  </defs>
  <g id="SteamVR" stroke-dasharray="none" fill-opacity="1" stroke-opacity="1" stroke="none" fill="none">
    <title>SteamVR</title>
    <rect fill="white" x="-502" y="-298" width="558" height="568"/>
    <g id="SteamVR_Layer_1">
      <title>Layer 1</title>
      <g id="Graphic_2">
        <path d="M -489.5 -297 L -355.5 -297 C -348.8726 -297 -343.5 -291.6274 -343.5 -285 L -343.5 -259 C -343.5 -252.37258 -348.8726 -247 -355.5 -247 L -489.5 -247 C -496.1274 -247 -501.5 -252.37258 -501.5 -259 L -501.5 -285 C -501.5 -291.6274 -496.1274 -297 -489.5 -297 Z" fill="white"/>
        <path d="M -489.5 -297 L -355.5 -297 C -348.8726 -297 -343.5 -291.6274 -343.5 -285 L -343.5 -259 C -343.5 -252.37258 -348.8726 -247 -355.5 -247 L -489.5 -247 C -496.1274 -247 -501.5 -252.37258 -501.5 -259 L -501.5 -285 C -501.5 -291.6274 -496.1274 -297 -489.5 -297 Z" stroke="black" stroke-linecap="round" stroke-linejoin="round" stroke-width="1"/>
        <text transform="translate(-496.5 -286.724)" fill="black">
          <tspan font-family="Helvetica Neue" font-size="16" fill="black" x="52.512" y="15">Game</tspan>
          <tspan font-family="Courier New" font-size="10" fill="black" x="43.995117" y="26.447998">MyGame.exe</tspan>
        </text>
      </g>
      <g id="Graphic_13">
        <path d="M -261.5 -125 L -185.5 -125 C -178.87258 -125 -173.5 -119.62742 -173.5 -113 L -173.5 -87 C -173.5 -80.37258 -178.87258 -75 -185.5 -75 L -261.5 -75 C -268.12742 -75 -273.5 -80.37258 -273.5 -87 L -273.5 -113 C -273.5 -119.62742 -268.12742 -125 -261.5 -125 Z" fill="white"/>
        <path d="M -261.5 -125 L -185.5 -125 C -178.87258 -125 -173.5 -119.62742 -173.5 -113 L -173.5 -87 C -173.5 -80.37258 -178.87258 -75 -185.5 -75 L -261.5 -75 C -268.12742 -75 -273.5 -80.37258 -273.5 -87 L -273.5 -113 C -273.5 -119.62742 -268.12742 -125 -261.5 -125 Z" stroke="black" stroke-linecap="round" stroke-linejoin="round" stroke-width="1"/>
        <text transform="translate(-268.5 -114.724)" fill="black">
          <tspan font-family="Helvetica Neue" font-size="16" fill="black" x="11.512" y="15">SteamVR</tspan>
          <tspan font-family="Courier New" font-size="10" fill="black" x="8.994141" y="26.447998">VRServer.exe</tspan>
        </text>
      </g>
      <g id="Graphic_15">
        <path d="M -202.5 -211 L -126.5 -211 C -119.87258 -211 -114.5 -205.62742 -114.5 -199 L -114.5 -173 C -114.5 -166.37258 -119.87258 -161 -126.5 -161 L -202.5 -161 C -209.12742 -161 -214.5 -166.37258 -214.5 -173 L -214.5 -199 C -214.5 -205.62742 -209.12742 -211 -202.5 -211 Z" fill="white"/>
        <path d="M -202.5 -211 L -126.5 -211 C -119.87258 -211 -114.5 -205.62742 -114.5 -199 L -114.5 -173 C -114.5 -166.37258 -119.87258 -161 -126.5 -161 L -202.5 -161 C -209.12742 -161 -214.5 -166.37258 -214.5 -173 L -214.5 -199 C -214.5 -205.62742 -209.12742 -211 -202.5 -211 Z" stroke="black" stroke-linecap="round" stroke-linejoin="round" stroke-width="1"/>
        <text transform="translate(-209.5 -200.724)" fill="black">
          <tspan font-family="Helvetica Neue" font-size="16" fill="black" x="15.064" y="15">OpenVR</tspan>
          <tspan font-family="Courier New" font-size="10" fill="black" x="14.995117" y="26.447998">IVROverlay</tspan>
        </text>
      </g>
      <g id="Graphic_16">
        <path d="M -90.5 -297 L 43.5 -297 C 50.127417 -297 55.5 -291.6274 55.5 -285 L 55.5 -259 C 55.5 -252.37258 50.127417 -247 43.5 -247 L -90.5 -247 C -97.12742 -247 -102.5 -252.37258 -102.5 -259 L -102.5 -285 C -102.5 -291.6274 -97.12742 -297 -90.5 -297 Z" fill="white"/>
        <path d="M -90.5 -297 L 43.5 -297 C 50.127417 -297 55.5 -291.6274 55.5 -285 L 55.5 -259 C 55.5 -252.37258 50.127417 -247 43.5 -247 L -90.5 -247 C -97.12742 -247 -102.5 -252.37258 -102.5 -259 L -102.5 -285 C -102.5 -291.6274 -97.12742 -297 -90.5 -297 Z" stroke="black" stroke-linecap="round" stroke-linejoin="round" stroke-width="1"/>
        <text transform="translate(-97.5 -286.724)" fill="black">
          <tspan font-family="Helvetica Neue" font-size="16" fill="black" x="29.992" y="15">Overlay App</tspan>
          <tspan font-family="Courier New" font-size="10" fill="black" x="34.993652" y="26.447998">MyOverlay.exe</tspan>
        </text>
      </g>
      <g id="Graphic_14">
        <path d="M -320.5 -211 L -244.5 -211 C -237.87258 -211 -232.5 -205.62742 -232.5 -199 L -232.5 -173 C -232.5 -166.37258 -237.87258 -161 -244.5 -161 L -320.5 -161 C -327.1274 -161 -332.5 -166.37258 -332.5 -173 L -332.5 -199 C -332.5 -205.62742 -327.1274 -211 -320.5 -211 Z" fill="white"/>
        <path d="M -320.5 -211 L -244.5 -211 C -237.87258 -211 -232.5 -205.62742 -232.5 -199 L -232.5 -173 C -232.5 -166.37258 -237.87258 -161 -244.5 -161 L -320.5 -161 C -327.1274 -161 -332.5 -166.37258 -332.5 -173 L -332.5 -199 C -332.5 -205.62742 -327.1274 -211 -320.5 -211 Z" stroke="black" stroke-linecap="round" stroke-linejoin="round" stroke-width="1"/>
        <text transform="translate(-327.5 -200.724)" fill="black">
          <tspan font-family="Helvetica Neue" font-size="16" fill="black" x="15.064" y="15">OpenVR</tspan>
          <tspan font-family="Courier New" font-size="10" fill="black" x="5.993652" y="26.447998">IVRCompositor</tspan>
        </text>
      </g>
      <g id="Graphic_3">
        <path d="M -261.5 -39 L -185.5 -39 C -178.87258 -39 -173.5 -33.627417 -173.5 -27 L -173.5 -1 C -173.5 5.627417 -178.87258 11 -185.5 11 L -261.5 11 C -268.12742 11 -273.5 5.627417 -273.5 -1 L -273.5 -27 C -273.5 -33.627417 -268.12742 -39 -261.5 -39 Z" fill="white"/>
        <path d="M -261.5 -39 L -185.5 -39 C -178.87258 -39 -173.5 -33.627417 -173.5 -27 L -173.5 -1 C -173.5 5.627417 -178.87258 11 -185.5 11 L -261.5 11 C -268.12742 11 -273.5 5.627417 -273.5 -1 L -273.5 -27 C -273.5 -33.627417 -268.12742 -39 -261.5 -39 Z" stroke="black" stroke-linecap="round" stroke-linejoin="round" stroke-width="1"/>
        <text transform="translate(-268.5 -23.224)" fill="black">
          <tspan font-family="Helvetica Neue" font-size="16" fill="black" x="13.88" y="15">Direct3D</tspan>
        </text>
      </g>
      <g id="Graphic_4">
        <path d="M -261.5 133 L -185.5 133 C -178.87258 133 -173.5 138.37258 -173.5 145 L -173.5 171 C -173.5 177.62742 -178.87258 183 -185.5 183 L -261.5 183 C -268.12742 183 -273.5 177.62742 -273.5 171 L -273.5 145 C -273.5 138.37258 -268.12742 133 -261.5 133 Z" fill="white"/>
        <path d="M -261.5 133 L -185.5 133 C -178.87258 133 -173.5 138.37258 -173.5 145 L -173.5 171 C -173.5 177.62742 -178.87258 183 -185.5 183 L -261.5 183 C -268.12742 183 -273.5 177.62742 -273.5 171 L -273.5 145 C -273.5 138.37258 -268.12742 133 -261.5 133 Z" stroke="black" stroke-linecap="round" stroke-linejoin="round" stroke-width="1"/>
        <text transform="translate(-268.5 148.776)" fill="black">
          <tspan font-family="Helvetica Neue" font-size="16" fill="black" x="27.968" y="15">GPU</tspan>
        </text>
      </g>
      <g id="Graphic_10">
        <path d="M -261.5 47 L -185.5 47 C -178.87258 47 -173.5 52.37258 -173.5 59 L -173.5 85 C -173.5 91.62742 -178.87258 97 -185.5 97 L -261.5 97 C -268.12742 97 -273.5 91.62742 -273.5 85 L -273.5 59 C -273.5 52.37258 -268.12742 47 -261.5 47 Z" fill="white"/>
        <path d="M -261.5 47 L -185.5 47 C -178.87258 47 -173.5 52.37258 -173.5 59 L -173.5 85 C -173.5 91.62742 -178.87258 97 -185.5 97 L -261.5 97 C -268.12742 97 -273.5 91.62742 -273.5 85 L -273.5 59 C -273.5 52.37258 -268.12742 47 -261.5 47 Z" stroke="black" stroke-linecap="round" stroke-linejoin="round" stroke-width="1"/>
        <text transform="translate(-268.5 62.776)" fill="black">
          <tspan font-family="Helvetica Neue" font-size="16" fill="black" x="4.712" y="15">GPU Driver</tspan>
        </text>
      </g>
      <g id="Graphic_6">
        <path d="M -261.5 219 L -185.5 219 C -178.87258 219 -173.5 224.37258 -173.5 231 L -173.5 257 C -173.5 263.62742 -178.87258 269 -185.5 269 L -261.5 269 C -268.12742 269 -273.5 263.62742 -273.5 257 L -273.5 231 C -273.5 224.37258 -268.12742 219 -261.5 219 Z" fill="white"/>
        <path d="M -261.5 219 L -185.5 219 C -178.87258 219 -173.5 224.37258 -173.5 231 L -173.5 257 C -173.5 263.62742 -178.87258 269 -185.5 269 L -261.5 269 C -268.12742 269 -273.5 263.62742 -273.5 257 L -273.5 231 C -273.5 224.37258 -268.12742 219 -261.5 219 Z" stroke="black" stroke-linecap="round" stroke-linejoin="round" stroke-width="1"/>
        <text transform="translate(-268.5 234.776)" fill="black">
          <tspan font-family="Helvetica Neue" font-size="16" fill="black" x="17.44" y="15">Monitor</tspan>
        </text>
      </g>
      <g id="Line_7">
        <line x1="-403.21705" y1="-247" x2="-248.82936" y2="-46.839064" marker-end="url(#FilledArrow_Marker)" stroke="black" stroke-linecap="round" stroke-linejoin="round" stroke-width="1"/>
      </g>
      <g id="Line_9">
        <line x1="-223.5" y1="183" x2="-223.5" y2="209.1" marker-end="url(#FilledArrow_Marker)" stroke="black" stroke-linecap="round" stroke-linejoin="round" stroke-width="1"/>
      </g>
      <g id="Line_11">
        <line x1="-223.5" y1="11" x2="-223.5" y2="37.1" marker-end="url(#FilledArrow_Marker)" stroke="black" stroke-linecap="round" stroke-linejoin="round" stroke-width="1"/>
      </g>
      <g id="Line_12">
        <line x1="-223.5" y1="97" x2="-223.5" y2="123.1" marker-end="url(#FilledArrow_Marker)" stroke="black" stroke-linecap="round" stroke-linejoin="round" stroke-width="1"/>
      </g>
      <g id="Line_18">
        <line x1="-42.879845" y1="-247" x2="-198.05475" y2="-46.824375" marker-end="url(#FilledArrow_Marker)" stroke="black" stroke-linecap="round" stroke-linejoin="round" stroke-width="1"/>
      </g>
      <g id="Line_19">
        <line x1="-64.48837" y1="-247" x2="-115.50306" y2="-215.88466" marker-end="url(#FilledArrow_Marker)" stroke="black" stroke-linecap="round" stroke-linejoin="round" stroke-width="1"/>
      </g>
      <g id="Line_20">
        <line x1="-381.80233" y1="-247" x2="-331.2653" y2="-215.95583" marker-end="url(#FilledArrow_Marker)" stroke="black" stroke-linecap="round" stroke-linejoin="round" stroke-width="1"/>
      </g>
      <g id="Line_21">
        <line x1="-265.34884" y1="-161" x2="-246.25174" y2="-133.16355" marker-end="url(#FilledArrow_Marker)" stroke="black" stroke-linecap="round" stroke-linejoin="round" stroke-width="1"/>
      </g>
      <g id="Line_22">
        <line x1="-181.65116" y1="-161" x2="-200.74826" y2="-133.16355" marker-end="url(#FilledArrow_Marker)" stroke="black" stroke-linecap="round" stroke-linejoin="round" stroke-width="1"/>
      </g>
      <g id="Line_23">
        <line x1="-223.5" y1="-75" x2="-223.5" y2="-48.9" marker-end="url(#FilledArrow_Marker)" stroke="black" stroke-linecap="round" stroke-linejoin="round" stroke-width="1"/>
      </g>
    </g>
  </g>
</svg>
